<svg width="16" height="18" viewBox="0 0 16 18" fill="none" xmlns="http://www.w3.org/2000/svg">
<path d="M14.6015 7.16751C15.6678 7.78343 15.6678 9.32252 14.6015 9.93844L2.58153 16.8818C1.13672 17.7164 -0.460902 16.0592 0.425924 14.6459L3.71541 9.40338C4.04168 8.88339 4.04168 8.22257 3.71541 7.70258L0.425924 2.46006C-0.460901 1.04671 1.13672 -0.610401 2.58153 0.22419L14.6015 7.16751Z" fill="#F7920C"/>
<path d="M14.6015 7.16751C15.6678 7.78343 15.6678 9.32252 14.6015 9.93844L2.58153 16.8818C1.13672 17.7164 -0.460902 16.0592 0.425924 14.6459L3.71541 9.40338C4.04168 8.88339 4.04168 8.22257 3.71541 7.70258L0.425924 2.46006C-0.460901 1.04671 1.13672 -0.610401 2.58153 0.22419L14.6015 7.16751Z" fill="url(#paint0_linear)"/>
<defs>
<linearGradient id="paint0_linear" x1="17" y1="8.55298" x2="-3.00006" y2="8.55298" gradientUnits="userSpaceOnUse">
<stop stop-color="#F8930D"/>
<stop offset="1" stop-color="#FF5400"/>
</linearGradient>
</defs>
</svg>
