<svg width="18" height="18" viewBox="0 0 18 18" fill="none" xmlns="http://www.w3.org/2000/svg">
<path d="M17.6977 8.45265L9.62167 1.09384C9.26719 0.770791 8.73264 0.770826 8.3783 1.09381L0.302274 8.45269C0.0183179 8.71144 -0.0754787 9.11011 0.0632474 9.46831C0.202009 9.82652 0.539859 10.058 0.92401 10.058H2.21389V17.4309C2.21389 17.7233 2.45091 17.9603 2.74323 17.9603H7.16988C7.46221 17.9603 7.69923 17.7233 7.69923 17.4309V12.9543H10.3009V17.431C10.3009 17.7233 10.5379 17.9603 10.8302 17.9603H15.2566C15.549 17.9603 15.786 17.7233 15.786 17.431V10.058H17.0761C17.4602 10.058 17.7981 9.82648 17.9369 9.46831C18.0754 9.11007 17.9816 8.71144 17.6977 8.45265Z" fill="white"/>
<path d="M15.6477 1.9082H12.0928L16.1771 5.62196V2.43751C16.1771 2.14519 15.9401 1.9082 15.6477 1.9082Z" fill="white"/>
</svg>
