<svg width="28" height="27" viewBox="0 0 28 27" fill="none" xmlns="http://www.w3.org/2000/svg">
<path d="M27.9088 7.93497C27.8456 6.50092 27.6137 5.51502 27.2815 4.66073C26.9388 3.75391 26.4115 2.94205 25.7208 2.26714C25.0459 1.58172 24.2286 1.04913 23.3323 0.711775C22.4731 0.379572 21.4923 0.147669 20.0583 0.0844409C18.6135 0.0158584 18.1549 0 14.4905 0C10.8262 0 10.3675 0.0158584 8.92814 0.0790861C7.49408 0.142314 6.50819 0.374423 5.6541 0.70642C4.74708 1.04913 3.93521 1.57637 3.2603 2.26714C2.57489 2.94205 2.0425 3.75927 1.70494 4.65558C1.37274 5.51502 1.14083 6.49557 1.0776 7.92962C1.00902 9.37438 0.993164 9.83304 0.993164 13.4974C0.993164 17.1617 1.00902 17.6203 1.07225 19.0598C1.13548 20.4938 1.36759 21.4797 1.69979 22.334C2.0425 23.2408 2.57489 24.0527 3.2603 24.7276C3.93521 25.413 4.75243 25.9456 5.64874 26.283C6.50819 26.6152 7.48873 26.8471 8.92299 26.9103C10.3622 26.9737 10.8211 26.9894 14.4854 26.9894C18.1497 26.9894 18.6084 26.9737 20.0478 26.9103C21.4818 26.8471 22.4677 26.6152 23.3218 26.283C25.1356 25.5817 26.5697 24.1476 27.271 22.334C27.603 21.4746 27.8351 20.4938 27.8983 19.0598C27.9615 17.6203 27.9774 17.1617 27.9774 13.4974C27.9774 9.83304 27.972 9.37438 27.9088 7.93497ZM25.4784 18.9543C25.4203 20.2724 25.1989 20.9842 25.0143 21.4587C24.5608 22.6345 23.6277 23.5677 22.4519 24.0212C21.9774 24.2057 21.2604 24.4271 19.9475 24.485C18.5239 24.5484 18.097 24.5641 14.4959 24.5641C10.8948 24.5641 10.4625 24.5484 9.04409 24.485C7.72599 24.4271 7.01421 24.2057 6.5397 24.0212C5.95458 23.8049 5.42199 23.4622 4.98969 23.0141C4.54154 22.5764 4.19883 22.0492 3.98258 21.4641C3.79804 20.9895 3.57664 20.2724 3.51877 18.9597C3.45534 17.5361 3.43969 17.109 3.43969 13.5079C3.43969 9.90677 3.45534 9.47448 3.51877 8.05628C3.57664 6.73818 3.79804 6.0264 3.98258 5.55189C4.19883 4.96657 4.54154 4.43418 4.99505 4.00168C5.43249 3.55352 5.95973 3.21081 6.54505 2.99477C7.01957 2.81024 7.7367 2.58884 9.04945 2.53076C10.473 2.46753 10.9001 2.45167 14.501 2.45167C18.1075 2.45167 18.5344 2.46753 19.9528 2.53076C21.2709 2.58884 21.9827 2.81024 22.4572 2.99477C23.0423 3.21081 23.5749 3.55352 24.0072 4.00168C24.4554 4.43933 24.7981 4.96657 25.0143 5.55189C25.1989 6.0264 25.4203 6.74333 25.4784 8.05628C25.5416 9.47983 25.5574 9.90677 25.5574 13.5079C25.5574 17.109 25.5416 17.5308 25.4784 18.9543Z" fill="black"/>
<path d="M14.4908 6.56348C10.6632 6.56348 7.55762 9.66884 7.55762 13.4967C7.55762 17.3245 10.6632 20.4299 14.4908 20.4299C18.3187 20.4299 21.4241 17.3245 21.4241 13.4967C21.4241 9.66884 18.3187 6.56348 14.4908 6.56348ZM14.4908 17.9941C12.0077 17.9941 9.99343 15.9801 9.99343 13.4967C9.99343 11.0133 12.0077 8.99929 14.4908 8.99929C16.9742 8.99929 18.9882 11.0133 18.9882 13.4967C18.9882 15.9801 16.9742 17.9941 14.4908 17.9941Z" fill="black"/>
<path d="M23.3165 6.28949C23.3165 7.18332 22.5917 7.90807 21.6977 7.90807C20.8039 7.90807 20.0791 7.18332 20.0791 6.28949C20.0791 5.39544 20.8039 4.6709 21.6977 4.6709C22.5917 4.6709 23.3165 5.39544 23.3165 6.28949Z" fill="black"/>
</svg>
