<svg width="28" height="28" viewBox="0 0 28 28" fill="none" xmlns="http://www.w3.org/2000/svg">
<path d="M23.8733 0H3.16902C1.42162 0 0 1.42162 0 3.16902V23.8733C0 25.6207 1.42162 27.0423 3.16902 27.0423H23.8733C25.6207 27.0423 27.0423 25.6207 27.0423 23.8733V3.16902C27.0423 1.42162 25.6207 0 23.8733 0ZM24.9296 23.8733C24.9296 24.4557 24.4557 24.9296 23.8733 24.9296H17.8521V16.3204H21.1157L21.6549 13.0458H17.8521V10.7747C17.8521 9.87809 18.5401 9.19015 19.4366 9.19015H21.6021V5.9155H19.4366C16.747 5.9155 14.5786 8.0942 14.5786 10.7838V13.0458H11.4085V16.3204H14.5786V24.9296H3.16902C2.58655 24.9296 2.11268 24.4557 2.11268 23.8733V3.16902C2.11268 2.58655 2.58655 2.11268 3.16902 2.11268H23.8733C24.4557 2.11268 24.9296 2.58655 24.9296 3.16902V23.8733Z" fill="black"/>
</svg>
