<svg width="29" height="28" viewBox="0 0 29 28" fill="none" xmlns="http://www.w3.org/2000/svg">
<path d="M24.0752 3.96024C21.5214 1.40646 18.1261 0 14.5145 0H14.5141C10.9025 0 7.50719 1.40646 4.9534 3.96024C2.39962 6.51402 0.993164 9.90957 0.993164 13.5211C0.993164 17.1327 2.39962 20.5283 4.9534 23.082C7.50719 25.6358 10.9027 27.0423 14.5143 27.0423C18.1259 27.0423 21.5214 25.6358 24.0752 23.082C26.629 20.5283 28.0354 17.1327 28.0354 13.5211C28.0354 9.90957 26.629 6.51402 24.0752 3.96024ZM24.9584 19.2949H21.0011C21.5313 17.7413 21.8507 16.0592 21.9252 14.3134H26.4239C26.3057 16.1108 25.7878 17.8005 24.9584 19.2949ZM14.5143 25.3406C12.8279 24.3371 11.4293 22.7816 10.4233 20.8794H18.6053C17.5993 22.7816 16.2007 24.3371 14.5143 25.3406ZM9.70714 19.2949C9.1245 17.7663 8.77128 16.0784 8.68958 14.3134H20.339C20.2573 16.0784 19.9039 17.7663 19.3213 19.2949H9.70714ZM2.6047 14.3134H7.10342C7.1779 16.0592 7.49728 17.7413 8.02751 19.2949H4.07016C3.24077 17.8005 2.72292 16.1108 2.6047 14.3134ZM4.07016 7.74738H8.02751C7.49728 9.30094 7.1779 10.983 7.10342 12.7289H2.6047C2.72292 10.9315 3.24077 9.24173 4.07016 7.74738ZM14.5143 1.7017C16.2007 2.70522 17.5993 4.26064 18.6053 6.16287H10.4233C11.4293 4.26064 12.8279 2.70522 14.5143 1.7017ZM19.3215 7.74738C19.9041 9.27598 20.2573 10.9638 20.339 12.7289H8.68958C8.77128 10.9638 9.1247 9.27598 9.70734 7.74738H19.3215ZM26.4239 12.7289H21.9252C21.8507 10.983 21.5313 9.30094 21.0011 7.74738H24.9584C25.7878 9.24173 26.3057 10.9315 26.4239 12.7289ZM20.3667 6.16287C19.6136 4.53627 18.6117 3.09887 17.4089 1.9402C20.0196 2.59298 22.293 4.10714 23.9071 6.16287H20.3667ZM11.6197 1.9402C10.4169 3.09887 9.41499 4.53627 8.66194 6.16287H5.12155C6.73556 4.10714 9.00896 2.59298 11.6197 1.9402ZM8.66194 20.8794C9.41499 22.506 10.4169 23.9434 11.6197 25.1021C9.00896 24.4493 6.73556 22.9351 5.12155 20.8794H8.66194ZM17.4089 25.1021C18.6117 23.9434 19.6136 22.5058 20.3667 20.8794H23.9071C22.293 22.9351 20.0196 24.4493 17.4089 25.1021Z" fill="black"/>
</svg>
