<svg width="71" height="41" viewBox="0 0 71 41" fill="none" xmlns="http://www.w3.org/2000/svg">
<path d="M32.8691 12.3878L32.5273 14.1161H35.7465L35.547 15.1322H32.3184L31.9575 16.9649H35.718L35.509 18H30.5236L31.8531 11.3528H36.7056L36.4966 12.3878H32.8691ZM40.5412 12.8721C41.111 12.8721 41.5605 13.0209 41.8897 13.3184C42.2252 13.616 42.393 14.037 42.393 14.5814C42.393 14.7334 42.3708 14.9359 42.3265 15.1892L41.7662 18H40.5792L41.13 15.2177C41.1553 15.091 41.168 14.9613 41.168 14.8283C41.168 14.2142 40.8293 13.9072 40.1519 13.9072C39.7151 13.9072 39.3542 14.0306 39.0693 14.2775C38.7844 14.5181 38.5914 14.8821 38.4901 15.3696L37.9583 18H36.7713L37.7779 12.9291H38.9079L38.7939 13.4894C39.2498 13.0779 39.8322 12.8721 40.5412 12.8721ZM44.9433 16.3002C44.9307 16.4015 44.9243 16.4743 44.9243 16.5186C44.9243 16.8985 45.1237 17.0884 45.5226 17.0884C45.7695 17.0884 45.991 17.0219 46.1873 16.889L46.3962 17.7626C46.0733 17.9652 45.665 18.0665 45.1712 18.0665C44.7344 18.0665 44.383 17.9462 44.1172 17.7056C43.8513 17.4651 43.7183 17.1327 43.7183 16.7085C43.7183 16.5693 43.731 16.4363 43.7563 16.3097L44.2406 13.9167H43.4144L43.6044 12.9671H44.4305L44.6584 11.8086H45.8454L45.608 12.9671H46.9755L46.7855 13.9167H45.4181L44.9433 16.3002ZM49.3004 13.5843C49.5219 13.3248 49.791 13.1412 50.1075 13.0336C50.4304 12.9259 50.8134 12.8721 51.2566 12.8721L51.0382 14.0022C50.9305 13.9832 50.8324 13.9737 50.7438 13.9737C49.7752 13.9737 49.1896 14.4833 48.987 15.5025L48.4837 18H47.2967L48.3033 12.9291H49.4333L49.3004 13.5843ZM56.4999 15.0942C56.4999 15.3411 56.4745 15.5817 56.4239 15.8159H52.3976C52.4166 16.6452 52.904 17.0599 53.86 17.0599C54.1512 17.0599 54.4234 17.0156 54.6766 16.9269C54.9299 16.832 55.1451 16.7022 55.3224 16.5376L55.8162 17.3638C55.5566 17.598 55.2432 17.7753 54.876 17.8955C54.5152 18.0095 54.1354 18.0665 53.7365 18.0665C53.2301 18.0665 52.7869 17.9747 52.4071 17.7911C52.0336 17.6075 51.7455 17.3479 51.5429 17.0124C51.3403 16.6706 51.2391 16.278 51.2391 15.8349C51.2391 15.2715 51.3625 14.765 51.6094 14.3155C51.8626 13.8597 52.2108 13.5052 52.654 13.252C53.1034 12.9987 53.6067 12.8721 54.1638 12.8721C54.8729 12.8721 55.4395 13.0715 55.8636 13.4704C56.2878 13.8629 56.4999 14.4042 56.4999 15.0942ZM54.1069 13.8217C53.708 13.8217 53.3662 13.9294 53.0813 14.1446C52.8027 14.3598 52.6097 14.6542 52.502 15.0277H55.4078C55.4142 14.6479 55.297 14.3535 55.0565 14.1446C54.8222 13.9294 54.5057 13.8217 54.1069 13.8217ZM63.12 12.9291L62.2558 17.2308C62.0659 18.1614 61.7145 18.8388 61.2018 19.263C60.689 19.6935 59.9958 19.9087 59.1221 19.9087C58.1282 19.9087 57.3369 19.6776 56.7481 19.2155L57.3653 18.3229C57.5616 18.4938 57.8212 18.6299 58.144 18.7312C58.4732 18.8388 58.8246 18.8926 59.1981 18.8926C59.7425 18.8926 60.1604 18.7723 60.4516 18.5318C60.7428 18.2912 60.9359 17.924 61.0308 17.4302L61.0783 17.1833C60.6225 17.5758 60.0686 17.7721 59.4165 17.7721C58.9797 17.7721 58.5872 17.6866 58.239 17.5157C57.8971 17.3448 57.6281 17.101 57.4318 16.7845C57.2419 16.468 57.1469 16.0976 57.1469 15.6735C57.1469 15.1543 57.2704 14.6827 57.5173 14.2586C57.7642 13.8281 58.106 13.4894 58.5429 13.2425C58.986 12.9956 59.4798 12.8721 60.0242 12.8721C60.4231 12.8721 60.7808 12.9481 61.0973 13.1C61.4138 13.2456 61.6544 13.4672 61.819 13.7648L61.9804 12.9291H63.12ZM59.6824 16.7655C60.0179 16.7655 60.3155 16.6927 60.575 16.5471C60.8409 16.3952 61.0467 16.1894 61.1923 15.9299C61.3442 15.664 61.4202 15.3664 61.4202 15.0372C61.4202 14.6764 61.3031 14.3947 61.0688 14.1921C60.8346 13.9832 60.5085 13.8787 60.0907 13.8787C59.7552 13.8787 59.4545 13.9547 59.1886 14.1066C58.9227 14.2522 58.7138 14.458 58.5619 14.7239C58.4162 14.9834 58.3434 15.2778 58.3434 15.607C58.3434 15.9615 58.4606 16.2432 58.6948 16.4521C58.9354 16.6611 59.2646 16.7655 59.6824 16.7655ZM69.628 12.9291L68.6214 18H67.4913L67.5958 17.4777C67.1526 17.8702 66.6019 18.0665 65.9435 18.0665C65.5257 18.0665 65.1458 17.9778 64.804 17.8006C64.4684 17.6233 64.2025 17.3669 64.0063 17.0314C63.81 16.6895 63.7119 16.2907 63.7119 15.8349C63.7119 15.2715 63.8354 14.765 64.0823 14.3155C64.3355 13.8597 64.6773 13.5052 65.1078 13.252C65.5446 12.9987 66.0321 12.8721 66.5702 12.8721C67.3806 12.8721 67.9566 13.1412 68.2985 13.6793L68.4409 12.9291H69.628ZM66.2474 17.0504C66.5829 17.0504 66.8804 16.9713 67.14 16.813C67.4059 16.6484 67.6148 16.4237 67.7667 16.1388C67.9187 15.8476 67.9946 15.5184 67.9946 15.1512C67.9946 14.7523 67.8775 14.4421 67.6433 14.2206C67.409 13.9927 67.0798 13.8787 66.6557 13.8787C66.3202 13.8787 66.0195 13.961 65.7536 14.1256C65.494 14.2839 65.2883 14.5086 65.1363 14.7998C64.9844 15.0847 64.9084 15.4107 64.9084 15.7779C64.9084 16.1768 65.0255 16.4901 65.2598 16.718C65.494 16.9396 65.8232 17.0504 66.2474 17.0504Z" fill="#3C4050"/>
<path d="M35.3951 34.2659C34.2936 34.2659 33.249 34.1329 32.2614 33.8671C31.2738 33.6012 30.4698 33.2593 29.8494 32.8415L31.3308 30.0306C32.0018 30.4611 32.7172 30.7903 33.4769 31.0182C34.2366 31.2335 34.9963 31.3411 35.7559 31.3411C36.4776 31.3411 37.0347 31.2398 37.4273 31.0372C37.8324 30.822 38.035 30.5308 38.035 30.1636C38.035 29.8471 37.8514 29.6002 37.4842 29.4229C37.1297 29.2456 36.5726 29.0557 35.8129 28.8531C34.9519 28.6252 34.2366 28.3973 33.6668 28.1694C33.097 27.9289 32.6033 27.568 32.1854 27.0869C31.7803 26.6057 31.5777 25.9727 31.5777 25.1877C31.5777 24.238 31.8372 23.4087 32.3564 22.6997C32.8755 21.978 33.6162 21.4209 34.5784 21.0284C35.5407 20.6359 36.6676 20.4396 37.959 20.4396C38.9086 20.4396 39.7949 20.5409 40.6179 20.7435C41.4409 20.9334 42.15 21.212 42.745 21.5791L41.3776 24.371C40.8585 24.0418 40.2824 23.7949 39.6493 23.6303C39.0289 23.453 38.3895 23.3644 37.7311 23.3644C36.9841 23.3644 36.3953 23.4847 35.9649 23.7253C35.547 23.9658 35.3381 24.276 35.3381 24.6559C35.3381 24.9851 35.5217 25.2383 35.8889 25.4156C36.2561 25.5928 36.8258 25.7827 37.5982 25.9853C38.4592 26.2006 39.1682 26.4221 39.7253 26.65C40.2951 26.878 40.7825 27.2261 41.1877 27.6946C41.5929 28.1631 41.7954 28.7772 41.7954 29.5369C41.7954 30.4738 41.5296 31.3031 40.9978 32.0248C40.4787 32.7339 39.7316 33.2846 38.7567 33.6771C37.7944 34.0696 36.6739 34.2659 35.3951 34.2659ZM49.3441 34.2659C48.002 34.2659 46.8308 34.019 45.8305 33.5252C44.8429 33.0314 44.0769 32.3414 43.5325 31.4551C43.0007 30.5688 42.7348 29.5558 42.7348 28.4163C42.7348 26.8969 43.083 25.5295 43.7794 24.314C44.4884 23.0985 45.4697 22.1489 46.7232 21.4652C47.9893 20.7815 49.4264 20.4396 51.0344 20.4396C52.3765 20.4396 53.5413 20.6865 54.5289 21.1803C55.5292 21.6741 56.2952 22.3642 56.827 23.2505C57.3714 24.1368 57.6436 25.1497 57.6436 26.2892C57.6436 27.8086 57.2891 29.176 56.5801 30.3915C55.8837 31.607 54.9024 32.5566 53.6363 33.2403C52.3828 33.924 50.9521 34.2659 49.3441 34.2659ZM49.6669 31.1512C50.5026 31.1512 51.237 30.9423 51.87 30.5244C52.5031 30.1066 52.9906 29.5495 53.3324 28.8531C53.6743 28.1441 53.8452 27.3654 53.8452 26.5171C53.8452 25.6181 53.5667 24.9028 53.0095 24.371C52.4651 23.8266 51.6991 23.5543 50.7115 23.5543C49.8758 23.5543 49.1415 23.7632 48.5084 24.1811C47.8753 24.5989 47.3879 25.1623 47.046 25.8714C46.7042 26.5677 46.5332 27.3401 46.5332 28.1884C46.5332 29.0874 46.8055 29.8091 47.3499 30.3535C47.907 30.8853 48.6793 31.1512 49.6669 31.1512ZM62.6139 34.2659C61.5124 34.2659 60.4678 34.1329 59.4802 33.8671C58.4926 33.6012 57.6886 33.2593 57.0682 32.8415L58.5496 30.0306C59.2207 30.4611 59.936 30.7903 60.6957 31.0182C61.4554 31.2335 62.2151 31.3411 62.9748 31.3411C63.6965 31.3411 64.2536 31.2398 64.6461 31.0372C65.0512 30.822 65.2538 30.5308 65.2538 30.1636C65.2538 29.8471 65.0702 29.6002 64.7031 29.4229C64.3485 29.2456 63.7914 29.0557 63.0318 28.8531C62.1708 28.6252 61.4554 28.3973 60.8856 28.1694C60.3159 27.9289 59.8221 27.568 59.4043 27.0869C58.9991 26.6057 58.7965 25.9727 58.7965 25.1877C58.7965 24.238 59.0561 23.4087 59.5752 22.6997C60.0943 21.978 60.835 21.4209 61.7973 21.0284C62.7595 20.6359 63.8864 20.4396 65.1779 20.4396C66.1275 20.4396 67.0138 20.5409 67.8368 20.7435C68.6598 20.9334 69.3688 21.212 69.9639 21.5791L68.5964 24.371C68.0773 24.0418 67.5012 23.7949 66.8682 23.6303C66.2478 23.453 65.6084 23.3644 64.95 23.3644C64.2029 23.3644 63.6142 23.4847 63.1837 23.7253C62.7659 23.9658 62.5569 24.276 62.5569 24.6559C62.5569 24.9851 62.7405 25.2383 63.1077 25.4156C63.4749 25.5928 64.0447 25.7827 64.817 25.9853C65.678 26.2006 66.387 26.4221 66.9441 26.65C67.5139 26.878 68.0014 27.2261 68.4065 27.6946C68.8117 28.1631 69.0143 28.7772 69.0143 29.5369C69.0143 30.4738 68.7484 31.3031 68.2166 32.0248C67.6975 32.7339 66.9505 33.2846 65.9755 33.6771C65.0133 34.0696 63.8927 34.2659 62.6139 34.2659Z" fill="#F8930D"/>
<path d="M23.6792 20.1986C25.1136 21.0271 25.1136 23.0976 23.6792 23.9262L7.50901 33.2669C5.56535 34.3896 3.41611 32.1604 4.60913 30.259L9.03438 23.2064C9.47331 22.5069 9.47331 21.6179 9.03438 20.9184L4.60913 13.8658C3.41611 11.9644 5.56534 9.73517 7.50901 10.8579L23.6792 20.1986Z" fill="#F7920C"/>
<path d="M23.6792 20.1986C25.1136 21.0271 25.1136 23.0976 23.6792 23.9262L7.50901 33.2669C5.56535 34.3896 3.41611 32.1604 4.60913 30.259L9.03438 23.2064C9.47331 22.5069 9.47331 21.6179 9.03438 20.9184L4.60913 13.8658C3.41611 11.9644 5.56534 9.73517 7.50901 10.8579L23.6792 20.1986Z" fill="url(#paint0_linear)"/>
<defs>
<linearGradient id="paint0_linear" x1="26.9058" y1="22.0624" x2="0.000252998" y2="22.0624" gradientUnits="userSpaceOnUse">
<stop stop-color="#F8930D"/>
<stop offset="1" stop-color="#FF5400"/>
</linearGradient>
</defs>
</svg>
