<svg width="229" height="243" viewBox="0 0 229 243" fill="none" xmlns="http://www.w3.org/2000/svg">
<g filter="url(#filter0_i)">
<path d="M19.9212 120.2C53.0507 146.072 33.7252 174.101 19.9212 184.881C-24.0334 231.513 35.5415 252.427 63.997 231.513C127.447 184.881 139.071 241.93 190.775 241.93C232.139 241.93 228.756 209.953 221.895 193.965C215.033 177.977 207.364 176.353 221.895 142.245C240.058 99.6094 216.688 68.3594 181.694 74.9001C153.698 80.1326 149.765 62.3788 146.821 54.1878C111.947 -42.8325 35.5415 16.6395 19.9212 33.4756C13.4832 40.4148 -21.4906 87.8603 19.9212 120.2Z" fill="#5C5C5C"/>
</g>
<mask id="mask0" mask-type="alpha" maskUnits="userSpaceOnUse" x="0" y="0" width="229" height="243">
<path d="M19.9212 120.562C53.0507 146.434 33.7252 174.462 19.9212 185.242C-24.0334 231.875 35.5415 252.788 63.997 231.875C127.447 185.242 139.071 242.291 190.775 242.291C232.139 242.291 228.756 210.315 221.895 194.326C215.033 178.338 207.364 176.715 221.895 142.606C240.058 99.9707 216.688 68.7207 181.694 75.2614C153.698 80.494 149.765 62.7402 146.821 54.5492C111.947 -42.4711 35.5415 17.0008 19.9212 33.837C13.4832 40.7761 -21.4906 88.2216 19.9212 120.562Z" fill="#5C5C5C"/>
</mask>
<g mask="url(#mask0)">
<g filter="url(#filter1_d)">
<path d="M48.9445 188.129C43.3744 163.649 46.5585 123.138 49.0725 104.136C49.2036 103.144 49.8355 102.296 50.7736 101.949C60.6363 98.3087 79.4507 97.4941 107.062 97.4941C128.351 97.4941 146.724 100.319 155.034 102.089C156.257 102.35 157.14 103.406 157.235 104.653C159.986 140.992 159.367 161.896 157.208 197.303C157.129 198.596 156.199 199.69 154.92 199.901C142.817 201.894 108.938 204.331 92.9795 203.654C76.5789 202.96 62.5411 194.964 50.673 190.126C49.8056 189.772 49.1523 189.043 48.9445 188.129Z" fill="#FAFAFA"/>
<path d="M106.701 98.0361C128.961 98.0361 148.033 101.124 155.747 102.866C156.077 102.941 156.112 103.362 155.795 103.48C145.816 107.178 107.112 107.786 93.7019 107.786C80.2855 107.786 62.7447 105.081 50.1731 103.27C49.814 103.219 49.7485 102.744 50.0873 102.614C59.8584 98.8689 78.783 98.0361 106.701 98.0361Z" fill="#EAE7E7"/>
<path d="M99.48 191.969C100.846 188.703 102.554 179.381 103.237 175.129H140.81C142.04 177.987 146.446 188.907 148.495 194.01C148.495 195.643 149.52 199.454 150.033 201.155C148.939 205.101 148.552 222.985 148.495 231.433C148.769 236.604 147.243 239.938 146.446 240.959C144.123 247.219 144.112 267.722 144.397 277.191C145.626 282.226 146.275 287.907 146.446 290.119C144.943 288.077 141.152 290.969 139.444 292.67C131.656 297.705 128.457 297.263 127.83 296.412C127.011 294.643 128.172 287.057 128.855 283.485C128.855 279.81 128.172 269.253 127.83 264.433C125.918 251.777 127.717 240.448 128.855 236.366C128.172 230.242 126.066 221.567 125.098 217.995C124.005 223.03 124.642 237.443 125.098 244.021C125.508 248.647 123.333 274.186 122.194 286.376L123.39 298.624C117.105 301.89 107.336 299.985 103.237 298.624C103.237 297.263 105.059 291.026 105.97 288.077C105.697 286.308 104.034 276.794 103.237 272.258C101.188 263.276 103.18 249.691 104.433 244.021C104.296 241.027 102.326 227.351 101.359 220.887C100.949 214.219 99.9354 198.83 99.48 191.969Z" fill="#F8930D"/>
<path d="M102.73 176.753V171.157C115.609 175.905 133.12 174.266 140.858 172.683L141.367 176.753C130.115 182.314 111.146 179.07 102.73 176.753Z" fill="#DA4C06"/>
<path d="M94.8212 117.057L107.59 114.839C108.408 114.727 109.69 113.825 109.974 113.303L134.661 111.938C135.615 112.894 142.209 113.815 145.387 114.156C152.879 114.839 155.432 123.313 155.773 127.464C156.045 131.286 161.448 143.615 164.115 149.303C169.652 146.743 182.423 138.793 189.211 127.464C191.498 128.307 195.927 131.148 195.35 135.77C171.518 163.293 161.046 178.379 148.963 155.786C148.009 153.329 144.025 147.483 142.152 144.867L140.45 146.914C140.45 148.688 139.315 158.572 138.747 163.293L140.45 173.188C123.56 176.601 108.328 173.7 102.823 171.823C102.483 168.241 97.1334 152.19 97.1334 144.867C97.1334 137.543 87.4066 156.714 83.0735 159.963C85.0369 166.282 84.6122 184.337 90.8143 191.559C89.2495 192.883 85.0007 195.134 80.5232 193.545C68.2462 165.38 62.4868 158.895 72.0377 146.914C73.9417 144.525 77.593 139.467 78.8983 135.77L83.0734 127.976C84.4356 119.957 91.0756 117.739 94.8212 117.057Z" fill="#FF5400"/>
<rect x="99.4507" y="79.3887" width="9.18621" height="9.18621" rx="4.33308" transform="rotate(7.14369 99.4507 79.3887)" fill="#F19857"/>
<rect x="133.813" y="79.7295" width="9.18621" height="9.18621" rx="4.33308" transform="rotate(7.14369 133.813 79.7295)" fill="#F19857"/>
<path d="M112.398 111.47C112.942 109.844 113.078 102.438 113.078 98.9385H128.554V108.929C129.37 112.181 132.862 112.881 134.506 112.824C132.601 121.088 125.89 123.38 122.772 123.493C113.793 123.493 109.28 118.074 108.146 115.364C110.595 114.822 112.001 112.542 112.398 111.47Z" fill="url(#paint0_linear)"/>
<path d="M102.219 78.9349C102.219 80.1674 102.818 84.1275 103.117 85.9535C104.015 87.8366 135.982 100.675 139.574 85.4399C139.928 83.9399 139.821 80.6941 140.293 78.9349C140.767 77.1653 141.818 75.5142 142.089 74.4841C142.089 69.5197 140.476 67.04 139.574 66.4384C139.574 66.1645 140.891 65.8677 141.55 65.7536C140.4 61.7821 136.042 58.3927 134.007 57.1944C134.151 56.6466 135.863 56.1673 136.701 55.9961C136.413 54.9005 134.007 51.8877 131.493 52.5724C130.496 52.8437 128.619 52.3442 127.721 51.8877C127.434 50.6551 128.32 49.6623 128.799 49.3199C127.362 49.3199 124.728 51.0318 123.59 51.8877C118.382 48.2928 111.378 49.1487 112.635 49.3199C113.641 49.4568 115.688 51.0888 116.586 51.8877C113.282 51.2029 107.188 53.2001 104.554 54.2843L103.117 53.4283C101.25 55.4826 101.74 59.1916 102.219 60.7893C100.902 61.1887 98.3757 62.1588 98.8067 62.8435C99.2377 63.5283 100.543 65.183 101.142 65.9248C100.723 68.1502 99.9203 72.875 100.064 73.9705C100.208 75.0661 101.561 77.7366 102.219 78.9349Z" fill="black" stroke="black" stroke-width="0.36109"/>
<circle cx="108.064" cy="62.9478" r="0.510345" transform="rotate(7.14369 108.064 62.9478)" fill="white"/>
<path d="M107.551 98.5732C103.89 96.5282 103.765 80.339 103.822 72.5C103.878 64.661 111.958 64.3201 114.5 66.7058C119.767 71.6478 125.789 68.7368 127.721 66.7059C131.45 62.7866 137.891 68.2397 137.891 72.5C138.704 81.9068 137.213 97.8915 135.179 98.5732C133.145 99.2548 129.359 102.379 127.721 103.856C125.517 105.842 119.416 105.083 117.89 103.856C113.653 100.448 110.319 99.5956 107.551 98.5732Z" fill="#F5AB75"/>
<path d="M129.09 90.2725C125.827 92.6647 118.101 93.4972 114.646 93.6145C116.141 97.2732 121.103 97.1324 123.142 97.1324C129.09 96.6048 128.58 92.5591 129.09 90.2725Z" fill="white" stroke="black" stroke-width="0.36109"/>
<path d="M121.868 76.5518C122.131 78.1406 122.689 80.6372 122.816 81.9991C122.942 83.3609 123.921 85.2901 124.395 86.0845C124.082 87.4028 123.587 87.9586 121.868 88.4677" stroke="black" stroke-width="0.36109"/>
<path d="M117.173 74.4751C113.465 74.0839 107.785 74.911 107.785 77.9957" stroke="black" stroke-width="0.722179" stroke-linecap="round"/>
<path d="M124.396 74.3745C127.231 73.7143 132.728 73.8132 133.423 76.1899" stroke="black" stroke-width="0.722179" stroke-linecap="round"/>
<rect x="113.619" y="79.3887" width="1.36092" height="4.42299" rx="0.68046" fill="#131313"/>
<rect x="127.298" y="79.6611" width="1.36092" height="4.42299" rx="0.68046" fill="#131313"/>
<path d="M109.557 62.0856C110.472 61.6705 112.638 61.2742 113.982 63.0093C114.806 63.9814 116.988 65.8161 119.125 65.3781" stroke="white" stroke-width="0.722179" stroke-linecap="round"/>
<ellipse cx="112.251" cy="86.1404" rx="3.48221" ry="2.2532" transform="rotate(7.14369 112.251 86.1404)" fill="#E99E72"/>
<ellipse rx="3.48221" ry="2.2532" transform="matrix(-0.992237 0.124358 0.124358 0.992237 130.623 86.1404)" fill="#E99E72"/>
<ellipse rx="3.48221" ry="2.2532" transform="matrix(-0.999938 0.0111617 0.0111617 0.999938 123.229 102.845)" fill="#E99E72"/>
<path d="M127.631 206.492C126.123 208.18 125.327 214.933 125.118 218.099C126.458 213.878 127.91 209.658 128.887 208.391C132.867 206.492 134.542 203.538 135.589 201.85C133.844 202.412 129.139 204.804 127.631 206.492Z" fill="url(#paint1_linear)" fill-opacity="0.21"/>
<path d="M142.089 144.797C145.122 141.475 146.843 133.663 147.325 130.173C150.213 140.283 145.158 148.95 144.436 147.686C143.858 146.675 142.631 145.339 142.089 144.797Z" fill="url(#paint2_linear)" fill-opacity="0.1"/>
<path d="M189.218 120.133C187.897 124.816 188.668 128.981 189.218 130.479C192.521 140.389 197.338 133.338 201.191 133.338C206.421 130.479 200.365 123.536 199.402 120.133C198.631 117.41 195.411 118.999 193.897 120.133C194.117 113.054 190.87 112.283 189.218 112.782C190.539 115.831 189.769 118.953 189.218 120.133Z" fill="url(#paint3_linear)"/>
<path d="M106.341 113.924C102.874 113.491 94.5453 116.091 92.439 117.354C96.0499 127.032 100.443 147.686 100.563 156.894C100.563 160.685 103.143 159.602 105.077 156.894C111.396 148.047 110.674 114.466 106.341 113.924Z" fill="url(#paint4_linear)"/>
<path d="M148.408 115.188C145.228 113.741 139.782 111.179 137.395 111.758C134.325 122.771 139.381 139.923 137.395 153.464C136.786 157.616 139.381 159.733 140.825 156.713C146.783 144.256 152.382 116.997 148.408 115.188Z" fill="url(#paint5_linear)"/>
<path d="M142.277 160.681C140.63 153.335 134.695 148.968 131.933 147.703C129.667 151.324 126.58 159.062 132.358 161.049C138.135 163.035 141.378 161.631 142.277 160.681Z" fill="#B9C8F0"/>
<path d="M136.624 180.296C130.597 173.115 130.225 164.432 130.792 160.988C117.651 159.926 107.709 165.833 104.382 168.919C96.4054 178.553 104.54 185.701 109.604 188.071C126.579 197.149 134.69 186.67 136.624 180.296Z" fill="url(#paint6_linear)"/>
<path d="M82.1952 166.872C79.3554 176.216 86.0977 189.746 89.8238 195.343C95.7139 200.162 104.466 202.003 108.106 202.322C111.645 202.091 125.808 203.651 132.447 204.46C138.837 205.151 140.564 196.055 140.629 191.421C141.316 189.335 140.883 186.236 140.58 184.947C140.125 184.09 139.133 181.215 138.694 179.884C138.135 176.556 136.574 176.264 135.863 176.535C135.084 179.31 132.441 182.921 131.216 184.379C125.113 192.507 113.695 188.118 108.749 184.908C107.74 184.144 106.588 181.684 106.138 180.55C101.489 172.619 108.782 169.52 113.009 168.962C116 167.63 128.885 163.662 134.954 161.845C126.04 143.947 107.733 145.628 99.6936 148.705C84.1349 151.16 81.5452 161.839 82.1952 166.872Z" fill="#444444"/>
<path d="M99.3518 162.892C102.683 156.737 111.272 144.312 118.972 143.85C124.942 143.705 136.827 146.252 141.06 156.934C141.8 158.475 142.112 159.859 142.162 160.765C141.899 159.385 141.526 158.11 141.06 156.934C139.913 154.544 137.737 151.778 133.911 149.834C133.448 149.394 132.608 149.172 132.947 151.811C133.788 155.537 133.481 164.192 125.525 169.001C123.4 170.373 115.916 172.921 102.977 172.136C99.4517 172.468 93.7916 171.084 99.3518 162.892Z" fill="url(#paint7_linear)"/>
<path d="M101.669 157.772C100.445 160.674 95.6604 166.644 93.4214 169.267C89.8288 174.433 95.0079 178.723 98.7679 176.796C100.776 175.474 107.056 174.044 109.946 173.494C112.005 173.408 111.328 172.463 110.732 172.001C108.848 170.658 105.924 170.129 104.698 170.032C100.687 169.616 100.256 166.219 100.541 164.572C100.616 163.471 102.088 160.273 102.815 158.811C103.602 155.775 102.379 156.853 101.669 157.772Z" fill="#646464"/>
<path d="M82.9778 160.013C80.9347 162.914 74.2892 157.625 71.942 146.964C62.3911 158.945 68.1505 165.43 80.4275 193.595C84.905 195.183 89.1538 192.933 90.7186 191.609C84.5165 184.387 84.9412 166.332 82.9778 160.013Z" fill="#FF5400"/>
<path d="M97.1602 194.321C95.4538 191.984 90.9801 191.292 88.3003 191.237C83.9687 188.77 81.792 191.724 81.2451 193.51C94.0428 218.667 111.599 201.625 104.543 201.625C102.082 201.625 100.606 200.218 99.7854 199.353C101.098 199.093 100.989 197.73 100.77 197.08C99.7854 196.702 98.8666 196.658 97.1602 194.321Z" fill="url(#paint8_linear)"/>
<path d="M117.354 85.5781C115.163 86.367 109.651 86.7817 107.063 86.6614C109.085 92.1499 107.906 96.8922 107.063 98.5773C113.382 100.202 118.257 105.438 123.312 105.438C127.103 105.438 130.895 100.383 135.409 98.5773C135.409 96.4108 134.686 91.8972 137.575 86.6614C135.409 87.528 129.812 87.0723 127.103 85.5781C121.868 82.6894 121.868 83.9532 117.354 85.5781Z" fill="url(#paint9_linear)"/>
<path d="M108.146 87.3837C106.883 86.4809 103.452 83.4117 102.008 79.8008M136.492 87.3837C137.214 87.0828 138.983 85.3977 140.283 81.0646" stroke="#EEEEEE" stroke-width="0.36109"/>
</g>
</g>
<defs>
<filter id="filter0_i" x="0" y="0" width="228.209" height="245.541" filterUnits="userSpaceOnUse" color-interpolation-filters="sRGB">
<feFlood flood-opacity="0" result="BackgroundImageFix"/>
<feBlend mode="normal" in="SourceGraphic" in2="BackgroundImageFix" result="shape"/>
<feColorMatrix in="SourceAlpha" type="matrix" values="0 0 0 0 0 0 0 0 0 0 0 0 0 0 0 0 0 0 127 0" result="hardAlpha"/>
<feOffset dy="3.6109"/>
<feGaussianBlur stdDeviation="1.80545"/>
<feComposite in2="hardAlpha" operator="arithmetic" k2="-1" k3="1"/>
<feColorMatrix type="matrix" values="0 0 0 0 0 0 0 0 0 0 0 0 0 0 0 0 0 0 0.25 0"/>
<feBlend mode="normal" in2="shape" result="effect1_innerShadow"/>
</filter>
<filter id="filter1_d" x="24.193" y="35.2063" width="186.322" height="293.024" filterUnits="userSpaceOnUse" color-interpolation-filters="sRGB">
<feFlood flood-opacity="0" result="BackgroundImageFix"/>
<feColorMatrix in="SourceAlpha" type="matrix" values="0 0 0 0 0 0 0 0 0 0 0 0 0 0 0 0 0 0 127 0"/>
<feOffset dx="-7.22179" dy="0.722179"/>
<feGaussianBlur stdDeviation="7.22179"/>
<feColorMatrix type="matrix" values="0 0 0 0 0 0 0 0 0 0 0 0 0 0 0 0 0 0 0.25 0"/>
<feBlend mode="normal" in2="BackgroundImageFix" result="effect1_dropShadow"/>
<feBlend mode="normal" in="SourceGraphic" in2="effect1_dropShadow" result="shape"/>
</filter>
<linearGradient id="paint0_linear" x1="121.326" y1="98.9385" x2="121.146" y2="111.216" gradientUnits="userSpaceOnUse">
<stop stop-color="#DF9057"/>
<stop offset="1" stop-color="#F5AB75"/>
</linearGradient>
<linearGradient id="paint1_linear" x1="127.84" y1="203.96" x2="132.89" y2="207.301" gradientUnits="userSpaceOnUse">
<stop/>
<stop offset="1" stop-opacity="0"/>
</linearGradient>
<linearGradient id="paint2_linear" x1="146.061" y1="132.339" x2="150.033" y2="133.423" gradientUnits="userSpaceOnUse">
<stop/>
<stop offset="1" stop-opacity="0"/>
</linearGradient>
<linearGradient id="paint3_linear" x1="195.891" y1="112.66" x2="195.891" y2="135.77" gradientUnits="userSpaceOnUse">
<stop stop-color="#EEEEEE"/>
<stop offset="1" stop-color="#E9E5E5"/>
</linearGradient>
<linearGradient id="paint4_linear" x1="95.3277" y1="130.715" x2="109.771" y2="129.632" gradientUnits="userSpaceOnUse">
<stop stop-color="#E9E7E7"/>
<stop offset="1" stop-color="white"/>
</linearGradient>
<linearGradient id="paint5_linear" x1="136.492" y1="129.271" x2="149.13" y2="129.632" gradientUnits="userSpaceOnUse">
<stop stop-color="#E9E7E7"/>
<stop offset="1" stop-color="#F8F7F7"/>
</linearGradient>
<linearGradient id="paint6_linear" x1="131.162" y1="172.852" x2="104.332" y2="181.372" gradientUnits="userSpaceOnUse">
<stop stop-color="#37474F"/>
<stop offset="1" stop-color="#181818"/>
</linearGradient>
<linearGradient id="paint7_linear" x1="116.158" y1="144.278" x2="120.64" y2="170.995" gradientUnits="userSpaceOnUse">
<stop stop-color="#E8EEFF"/>
<stop offset="1" stop-color="#CEDCFF"/>
</linearGradient>
<linearGradient id="paint8_linear" x1="93.7027" y1="190.295" x2="93.7027" y2="207.266" gradientUnits="userSpaceOnUse">
<stop stop-color="#EEEEEE"/>
<stop offset="1" stop-color="#E9E5E5"/>
</linearGradient>
<linearGradient id="paint9_linear" x1="122.319" y1="83.8535" x2="122.319" y2="105.438" gradientUnits="userSpaceOnUse">
<stop stop-color="#F1EFEF"/>
<stop offset="1" stop-color="#FAFAFA"/>
</linearGradient>
</defs>
</svg>
